# xmcd
#
# Track frame offsets: 
#        150
#        29705
#        52637
#        73610
#        96912
#        116915
#        151100
#        183672
#        207682
#        220172
#        242675
#        277812
#        305635
#
# Disc length: 4339 seconds
#
# Revision: 5
# Processed by: cddbd v1.5.2PL0 Copyright (c) Steve Scherf et al.
# Submitted via: ExactAudioCopyFreeDBPlugin 1.0
#
DISCID=be10f10d
DTITLE=Joachim-Ernst Berendt - Stories for Friends - 75 Years (1)
DYEAR=1900
DGENRE=Jazz
TTITLE0=Paul Winter - Grand Canyon Suite for Joe
TTITLE1=John McLaughlin - Krishna and the Two Kings
TTITLE2=Reinhard Flatischler - Hören worauf?
TTITLE3=Rüdiger Oppermann - The secret life of spoons
TTITLE4=Charlie Mariano - The large book
TTITLE5=Christian Bollmann - Tschuang
TTITLE6=Attila Zoller and Lee Koniz - Let go
TTITLE7=Joachim Kühn - Gegenwert einer Rupie
TTITLE8=Albert Mangelsdorff - Holy men's flood
TTITLE9=Michael Reimann - Schon voll
TTITLE10=Music Ensemble of Benares - Now you are love
TTITLE11=Claus Bantzer and Leszek Zadlo - Vom Rauschen der Stille
TTITLE12=Clark Boland Big Band - Just in time
EXTD=
EXTT0=
EXTT1=
EXTT2=
EXTT3=
EXTT4=
EXTT5=
EXTT6=
EXTT7=
EXTT8=
EXTT9=
EXTT10=
EXTT11=
EXTT12=
PLAYORDER=
